<mxfile host="app.diagrams.net" modified="2023-07-13T09:41:37.863Z" agent="Mozilla/5.0 (Macintosh; Intel Mac OS X 10_15_7) AppleWebKit/605.1.15 (KHTML, like Gecko) Version/17.0 Safari/605.1.15" version="21.6.2" etag="f3_98m4QSzQOYW3iF28I" type="github">
  <diagram name="第 1 页" id="3byZhyoIraDAZ3SaAe80">
    <mxGraphModel>
      <root>
        <mxCell id="0" />
        <mxCell id="1" parent="0" />
      </root>
    </mxGraphModel>
  </diagram>
</mxfile>
